<?xml version="1.0" encoding="UTF-8" standalone="no"?>
<!DOCTYPE svg PUBLIC "-//W3C//DTD SVG 1.1//EN" "http://www.w3.org/Graphics/SVG/1.1/DTD/svg11.dtd">
<svg version="1.1" xmlns="http://www.w3.org/2000/svg" xmlns:xlink="http://www.w3.org/1999/xlink" preserveAspectRatio="xMidYMid meet" viewBox="0 0 640 640" width="640" height="640"><defs><path d="M52.33 177.76C55.52 177.76 58.1 180.34 58.1 183.53C58.1 189.04 58.1 199.81 58.1 205.32C58.1 208.51 55.52 211.09 52.33 211.09C51.18 211.09 53.49 211.09 52.33 211.09C49.15 211.09 46.56 208.51 46.56 205.32C46.56 199.81 46.56 189.04 46.56 183.53C46.56 180.34 49.15 177.76 52.33 177.76C53.49 177.76 51.18 177.76 52.33 177.76Z" id="eS0GLowhx"></path><linearGradient id="gradientbrrSQrn5o" gradientUnits="userSpaceOnUse" x1="52.33" y1="177.76" x2="58.1" y2="177.76"><stop style="stop-color: #859cfb;stop-opacity: 1" offset="0%"></stop><stop style="stop-color: #010000;stop-opacity: 1" offset="100%"></stop></linearGradient><path d="M75.09 203.72C79.16 203.72 82.46 207.02 82.46 211.09C82.46 212.57 82.46 209.62 82.46 211.09C82.46 215.16 79.16 218.46 75.09 218.46C69.13 218.46 58.61 218.46 52.65 218.46C48.58 218.46 45.28 215.16 45.28 211.09C45.28 209.62 45.28 212.57 45.28 211.09C45.28 207.02 48.58 203.72 52.65 203.72C58.61 203.72 69.13 203.72 75.09 203.72Z" id="e1PiH3xj9r"></path></defs><g><g><g><use xlink:href="#eS0GLowhx" opacity="1" fill="url(#gradientbrrSQrn5o)"></use></g><g><g><filter id="shadow15949283" x="36.28" y="194.72" width="56.18" height="33.74" filterUnits="userSpaceOnUse" primitiveUnits="userSpaceOnUse"><feFlood></feFlood><feComposite in2="SourceAlpha" operator="in"></feComposite><feGaussianBlur stdDeviation="1"></feGaussianBlur><feOffset dx="1" dy="1" result="afterOffset"></feOffset><feFlood flood-color="#000000" flood-opacity="1"></feFlood><feComposite in2="afterOffset" operator="in"></feComposite><feMorphology operator="dilate" radius="1"></feMorphology><feComposite in2="SourceAlpha" operator="out"></feComposite></filter><path d="M75.09 203.72C79.16 203.72 82.46 207.02 82.46 211.09C82.46 212.57 82.46 209.62 82.46 211.09C82.46 215.16 79.16 218.46 75.09 218.46C69.13 218.46 58.61 218.46 52.65 218.46C48.58 218.46 45.28 215.16 45.28 211.09C45.28 209.62 45.28 212.57 45.28 211.09C45.28 207.02 48.58 203.72 52.65 203.72C58.61 203.72 69.13 203.72 75.09 203.72Z" id="b5eTJOr04" fill="white" fill-opacity="1" filter="url(#shadow15949283)"></path></g><use xlink:href="#e1PiH3xj9r" opacity="1" fill="#000000" fill-opacity="1"></use></g></g></g></svg>