<?xml version="1.0" encoding="UTF-8" standalone="no"?>
<!DOCTYPE svg PUBLIC "-//W3C//DTD SVG 1.1//EN" "http://www.w3.org/Graphics/SVG/1.1/DTD/svg11.dtd">
<svg version="1.1" xmlns="http://www.w3.org/2000/svg" xmlns:xlink="http://www.w3.org/1999/xlink" preserveAspectRatio="xMidYMid meet" viewBox="0 0 640 640" width="640" height="640"><defs><path d="M101.93 149.55C104.63 149.55 106.82 151.74 106.82 154.44C106.82 173.59 106.82 226.16 106.82 245.31C106.82 248.01 104.63 250.19 101.93 250.19C97.4 250.19 88.68 250.19 84.14 250.19C81.44 250.19 79.25 248.01 79.25 245.31C79.25 226.16 79.25 173.59 79.25 154.44C79.25 151.74 81.44 149.55 84.14 149.55C88.68 149.55 97.4 149.55 101.93 149.55Z" id="aaGUhF8xH"></path><linearGradient id="gradientb1nwq5gNqh" gradientUnits="userSpaceOnUse" x1="93.04" y1="149.55" x2="68.04" y2="149.55"><stop style="stop-color: #65834c;stop-opacity: 1" offset="0%"></stop><stop style="stop-color: #010000;stop-opacity: 1" offset="100%"></stop></linearGradient><path d="M104.4 149.55C101.7 149.55 99.51 151.74 99.51 154.44C99.51 173.59 99.51 226.16 99.51 245.31C99.51 248.01 101.7 250.19 104.4 250.19C108.93 250.19 117.65 250.19 122.19 250.19C124.89 250.19 127.08 248.01 127.08 245.31C127.08 226.16 127.08 173.59 127.08 154.44C127.08 151.74 124.89 149.55 122.19 149.55C117.65 149.55 108.93 149.55 104.4 149.55Z" id="a1mcQ1znJY"></path><linearGradient id="gradientbvqE19SPE" gradientUnits="userSpaceOnUse" x1="113.29" y1="149.55" x2="138.29" y2="149.55"><stop style="stop-color: #65834c;stop-opacity: 1" offset="0%"></stop><stop style="stop-color: #010000;stop-opacity: 1" offset="100%"></stop></linearGradient></defs><g><g><g><use xlink:href="#aaGUhF8xH" opacity="1" fill="url(#gradientb1nwq5gNqh)"></use></g><g><use xlink:href="#a1mcQ1znJY" opacity="1" fill="url(#gradientbvqE19SPE)"></use></g></g></g></svg>