<?xml version="1.0" encoding="UTF-8" standalone="no"?>
<!DOCTYPE svg PUBLIC "-//W3C//DTD SVG 1.1//EN" "http://www.w3.org/Graphics/SVG/1.1/DTD/svg11.dtd">
<svg version="1.1" xmlns="http://www.w3.org/2000/svg" xmlns:xlink="http://www.w3.org/1999/xlink" preserveAspectRatio="xMidYMid meet" viewBox="0 0 640 640" width="640" height="640"><defs><path d="M77.13 197.78C77.13 207.39 73.98 215.19 70.11 215.19C66.23 215.19 63.08 207.39 63.08 197.78C63.08 188.17 66.23 180.37 70.11 180.37C73.98 180.37 77.13 188.17 77.13 197.78Z" id="b4np68jrTq"></path><linearGradient id="gradientaZYxdihri" gradientUnits="userSpaceOnUse" x1="70.11" y1="180.37" x2="105.54" y2="190.15"><stop style="stop-color: #e5c694;stop-opacity: 1" offset="0%"></stop><stop style="stop-color: #010000;stop-opacity: 1" offset="100%"></stop></linearGradient><path d="M73.9 155.33C75.69 155.33 77.13 156.77 77.13 158.56C77.13 164.87 77.13 180.6 77.13 186.92C77.13 188.7 75.69 190.15 73.9 190.15C71.74 190.15 68.47 190.15 66.31 190.15C64.53 190.15 63.08 188.7 63.08 186.92C63.08 180.6 63.08 164.87 63.08 158.56C63.08 156.77 64.53 155.33 66.31 155.33C68.47 155.33 71.74 155.33 73.9 155.33Z" id="b1AFtXTqCO"></path><radialGradient id="gradientcEykVI0kY" gradientUnits="userSpaceOnUse" cx="66.44" cy="162.66" dx="66.44" dy="197.48" r="34.82"><stop style="stop-color: #65844c;stop-opacity: 1" offset="0%"></stop><stop style="stop-color: #010000;stop-opacity: 1" offset="100%"></stop></radialGradient></defs><g><g><g><use xlink:href="#b4np68jrTq" opacity="1" fill="url(#gradientaZYxdihri)"></use></g><g><use xlink:href="#b1AFtXTqCO" opacity="1" fill="url(#gradientcEykVI0kY)"></use></g></g></g></svg>